# Blender v2.93.1 OBJ File: 'crane cable.blend'
# www.blender.org
mtllib crane cable v2.mtl
o poulie_ropes_Masche.076
v -0.009728 9.583498 -0.354891
v -0.004728 9.583498 -0.363551
v 0.005272 9.583498 -0.346231
v -0.004728 9.583498 -0.346231
v 0.005274 -9.550350 -0.363550
v 0.010273 -9.550350 1.186108
v 0.005274 -9.550350 1.194768
v -0.007228 9.583498 -0.359221
v -0.007227 0.016573 -0.359221
v 0.000272 9.583498 -0.363551
v 0.000273 0.016573 -0.363551
v 0.000273 -9.550350 -0.363550
v 0.000272 9.583498 -0.346231
v 0.000273 0.016573 -0.346230
v -0.007228 9.583498 -0.350561
v -0.007227 0.016573 -0.350560
v 0.010273 0.016573 1.186107
v 0.005273 0.016573 1.194768
v 0.007774 -9.550350 1.190438
v 0.000273 0.016573 1.194768
v 0.000273 -9.550350 1.194768
v 0.000272 9.583498 -1.200803
v 0.007772 9.583498 -1.187812
v 0.007772 9.583498 -1.196473
v 0.005273 0.016573 -1.200802
v -0.004727 0.016573 -1.200802
v 0.000273 0.016573 -1.200802
v -0.009728 9.583498 -1.192143
v -0.004728 9.583498 -1.200803
v 0.005272 9.583498 -1.200803
v 0.010272 9.583498 -1.192143
v 0.005272 9.583498 -1.183482
v -0.004728 9.583498 -1.183482
v -0.009727 -9.550350 -1.192142
v -0.004727 -9.550350 -1.200802
v 0.005274 -9.550350 -1.200802
v 0.010273 -9.550350 -1.192142
v 0.005274 -9.550350 -1.183481
v -0.004727 -9.550350 -1.183481
v -0.009728 9.583498 -0.354891
v -0.004728 9.583498 -0.363551
v 0.005272 9.583498 -0.363551
v 0.010272 9.583498 -0.354891
v 0.005272 9.583498 -0.346231
v -0.004728 9.583498 -0.346231
v -0.009727 -9.550350 -0.354890
v -0.004727 -9.550350 -0.363550
v 0.005274 -9.550350 -0.363550
v 0.010273 -9.550350 -0.354890
v 0.005274 -9.550350 -0.346230
v -0.004727 -9.550350 -0.346230
v -0.009728 9.583498 0.348855
v -0.004728 9.583498 0.340195
v 0.005272 9.583498 0.340195
v 0.010272 9.583498 0.348855
v 0.005272 9.583498 0.357515
v -0.004728 9.583498 0.357515
v -0.009727 -9.550350 0.348856
v -0.004727 -9.550350 0.340196
v 0.005274 -9.550350 0.340196
v 0.010273 -9.550350 0.348856
v 0.005274 -9.550350 0.357516
v -0.004727 -9.550350 0.357516
v -0.009728 9.583498 1.186107
v -0.004728 9.583498 1.177446
v 0.005272 9.583498 1.177446
v 0.010272 9.583498 1.186107
v 0.005272 9.583498 1.194767
v -0.004728 9.583498 1.194767
v -0.009727 -9.550350 1.186108
v -0.004727 -9.550350 1.177447
v 0.005274 -9.550350 1.177447
v 0.010273 -9.550350 1.186108
v 0.005274 -9.550350 1.194768
v -0.004727 -9.550350 1.194768
v 0.000273 -9.550350 -1.200802
v 0.010273 0.016573 -1.192142
v 0.007773 0.016573 -1.196472
v 0.007774 -9.550350 -1.196472
v 0.005273 0.016573 -1.183482
v 0.007773 0.016573 -1.187812
v 0.007774 -9.550350 -1.187811
v 0.000273 0.016573 -1.183482
v 0.000273 -9.550350 -1.183481
v -0.007228 9.583498 -0.359221
v -0.004727 0.016573 -0.363551
v -0.007227 0.016573 -0.359221
v -0.009727 0.016573 -0.354891
v 0.000272 9.583498 -0.363551
v 0.005273 0.016573 -0.363551
v 0.000273 0.016573 -0.363551
v 0.000273 -9.550350 -0.363550
v 0.007772 9.583498 -0.359221
v 0.010273 0.016573 -0.354891
v 0.007773 0.016573 -0.359221
v 0.007774 -9.550350 -0.359220
v 0.007772 9.583498 -0.350561
v 0.005273 0.016573 -0.346230
v 0.007773 0.016573 -0.350560
v 0.007774 -9.550350 -0.350560
v 0.000272 9.583498 -0.346231
v -0.004727 0.016573 -0.346230
v 0.000273 0.016573 -0.346230
v 0.000273 -9.550350 -0.346230
v -0.007228 9.583498 -0.350561
v -0.007227 0.016573 -0.350560
v -0.004727 0.016573 0.340195
v 0.000272 9.583498 0.340195
v 0.005273 0.016573 0.340195
v 0.000273 0.016573 0.340195
v 0.000273 -9.550350 0.340196
v 0.007772 9.583498 0.344525
v 0.010273 0.016573 0.348856
v 0.007773 0.016573 0.344526
v 0.007774 -9.550350 0.344526
v 0.007772 9.583498 0.353185
v 0.005273 0.016573 0.357516
v 0.007773 0.016573 0.353186
v 0.007774 -9.550350 0.353186
v 0.000273 0.016573 0.357516
v 0.000273 -9.550350 0.357516
v -0.004727 0.016573 1.177447
v 0.000272 9.583498 1.177446
v 0.005273 0.016573 1.177447
v 0.000273 0.016573 1.177447
v 0.000273 -9.550350 1.177447
v 0.007772 9.583498 1.181777
v 0.010273 0.016573 1.186107
v 0.007773 0.016573 1.181777
v 0.007774 -9.550350 1.181778
v 0.007772 9.583498 1.190437
v 0.005273 0.016573 1.194768
v 0.007773 0.016573 1.190437
v 0.007774 -9.550350 1.190438
v 0.000273 0.016573 1.194768
v 0.000273 -9.550350 1.194768
vt 0.289090 0.580919
vt 0.287055 0.580919
vt 0.285105 0.464294
vt 0.287140 0.464294
vt 0.285019 0.580919
vt 0.282984 0.580919
vt 0.281034 0.464295
vt 0.036287 0.638112
vt 0.038323 0.638112
vt 0.040271 0.754737
vt 0.040358 0.638112
vt 0.042394 0.638113
vt 0.044342 0.754737
vt 0.048326 0.871361
vt 0.046290 0.871361
vt 0.028143 0.638112
vt 0.030179 0.638112
vt 0.032128 0.754737
vt 0.032215 0.638113
vt 0.034251 0.638113
vt 0.036200 0.754737
vt 0.283069 0.464294
vt 0.285105 0.464294
vt 0.287055 0.580919
vt 0.281034 0.464295
vt 0.279084 0.347670
vt 0.281120 0.347670
vt 0.283155 0.347670
vt 0.287140 0.464294
vt 0.285019 0.580919
vt 0.021695 0.168433
vt 0.019073 0.165267
vt 0.108536 0.088614
vt 0.197999 0.011962
vt 0.200622 0.015128
vt 0.034895 0.184350
vt 0.033499 0.182734
vt 0.123004 0.106072
vt 0.211113 0.027794
vt 0.212531 0.029467
vt 0.032186 0.181099
vt 0.030874 0.179516
vt 0.120338 0.102864
vt 0.208490 0.024628
vt 0.209801 0.026211
vt 0.029563 0.177933
vt 0.028252 0.176350
vt 0.117715 0.099697
vt 0.205867 0.021461
vt 0.207178 0.023045
vt 0.026940 0.174766
vt 0.024318 0.171600
vt 0.203245 0.018295
vt 0.115092 0.096530
vt 0.204556 0.019878
vt 0.044255 0.871361
vt 0.040184 0.871361
vt 0.038235 0.754737
vt 0.036287 0.638112
vt 0.040271 0.754737
vt 0.020000 0.638113
vt 0.022036 0.638113
vt 0.023986 0.754737
vt 0.027972 0.871361
vt 0.025937 0.871361
vt 0.024072 0.638112
vt 0.026108 0.638112
vt 0.028057 0.754737
vt 0.032043 0.871361
vt 0.030007 0.871361
vt 0.036113 0.871361
vt 0.034078 0.871361
vt 0.032128 0.754737
vt 0.034164 0.754737
vt 0.032215 0.638113
vt 0.036200 0.754737
vt 0.078182 0.638112
vt 0.082253 0.638112
vt 0.084202 0.754737
vt 0.086150 0.871361
vt 0.082079 0.871361
vt 0.084289 0.638113
vt 0.086237 0.754737
vt 0.090221 0.871361
vt 0.088185 0.871361
vt 0.061895 0.638113
vt 0.063931 0.638113
vt 0.065881 0.754737
vt 0.069867 0.871361
vt 0.067832 0.871361
vt 0.065967 0.638112
vt 0.068002 0.638112
vt 0.069952 0.754737
vt 0.073938 0.871361
vt 0.071902 0.871361
vt 0.070038 0.638112
vt 0.074110 0.638113
vt 0.078008 0.871361
vt 0.074023 0.754737
vt 0.075973 0.871361
vt 0.291299 0.347670
vt 0.295370 0.347670
vt 0.297319 0.464294
vt 0.299267 0.580919
vt 0.295196 0.580919
vt 0.297406 0.347670
vt 0.299354 0.464295
vt 0.303338 0.580919
vt 0.301302 0.580919
vt 0.275012 0.347670
vt 0.277048 0.347670
vt 0.278998 0.464295
vt 0.282984 0.580919
vt 0.280949 0.580919
vt 0.287227 0.347670
vt 0.291125 0.580919
vt 0.289090 0.580919
vt 0.276963 0.464295
vt 0.278913 0.580919
vt 0.301390 0.464295
vt 0.299442 0.347670
vt 0.071988 0.754737
vt 0.067917 0.754737
vt 0.063846 0.754737
vt 0.065796 0.871361
vt 0.088273 0.754737
vt 0.086325 0.638113
vt 0.034251 0.638113
vt 0.030093 0.754737
vt 0.028143 0.638112
vt 0.030179 0.638112
vt 0.026022 0.754737
vt 0.021951 0.754737
vt 0.023901 0.871361
vt 0.044342 0.754737
vt 0.042307 0.754737
vt 0.040358 0.638112
vt 0.046290 0.871361
vt 0.046378 0.754737
vt 0.048326 0.871361
vt 0.042394 0.638113
vt 0.044430 0.638113
vt 0.038323 0.638112
vt 0.116404 0.098114
vt 0.119026 0.101280
vt 0.121649 0.104447
vt 0.124422 0.107745
vt 0.213950 0.031139
vt 0.121608 0.104456
vt 0.032103 0.181117
vn 0.0000 0.0000 1.0000
vn 0.5338 0.0000 0.8456
vn 0.8660 0.0000 0.5000
vn 0.9969 0.0000 0.0790
vn 0.9969 0.0001 0.0790
vn -0.9969 0.0001 -0.0790
vn -0.8660 -0.0000 -0.5000
vn -0.5338 0.0000 -0.8456
vn 0.0000 -0.0000 -1.0000
vn 0.5338 -0.0000 -0.8456
vn -0.4654 0.0001 0.8851
vn -0.8660 -0.0000 0.5000
vn 0.4866 0.0000 0.8736
vn 0.4654 0.0000 0.8851
vn 1.0000 0.0000 -0.0000
vn 0.5000 0.0000 0.8660
vn -1.0000 -0.0000 0.0000
vn -0.5000 -0.0000 -0.8660
vn 0.5000 -0.0000 -0.8660
vn 0.8660 0.0000 -0.5000
vn -0.5000 0.0000 0.8660
vn -0.9969 -0.0001 0.0791
vn -0.5336 -0.0000 0.8457
vn 0.9969 0.0000 -0.0790
vn 0.4655 -0.0000 0.8851
vn 0.4655 0.0000 -0.8851
vn -0.4655 -0.0000 -0.8851
g poulie_ropes_Masche.076_poulie.002
usemtl poulie.002
s 1
f 21/1/1 7/2/2 18/3/2
f 20/4/1 21/1/1 18/3/2
f 19/5/3 6/6/4 17/7/5
f 1/8/6 8/9/7 9/10/7
f 2/11/8 10/12/9 11/13/9
f 5/14/10 12/15/9 11/13/9
f 3/16/2 13/17/1 14/18/1
f 4/19/11 15/20/12 16/21/12
f 133/22/3 132/23/13 74/24/14
f 133/22/3 128/25/15 67/26/15
f 131/27/3 68/28/16 132/23/13
f 135/29/1 132/23/13 68/28/16
f 133/22/3 131/27/3 132/23/13
f 133/22/3 134/30/3 128/25/15
f 28/31/17 29/32/18 26/33/18 35/34/18
f 35/34/18 34/35/17 28/31/17
f 29/36/18 22/37/9 27/38/9
f 36/39/19 76/40/9 27/38/9
f 30/41/19 24/42/20 78/43/20
f 37/44/15 79/45/20 78/43/20
f 31/46/15 23/47/3 81/48/3
f 38/49/16 82/50/3 81/48/3
f 32/51/16 33/52/21 39/53/21 83/54/1
f 39/53/21 84/55/1 83/54/1
f 33/52/21 28/31/17 34/35/17
f 34/35/17 39/53/21 33/52/21
f 47/56/18 46/57/17 88/58/17 40/59/22 87/60/7
f 42/61/19 93/62/20 95/63/20
f 49/64/15 96/65/20 95/63/20
f 43/66/15 97/67/3 99/68/3
f 50/69/16 100/70/3 99/68/3
f 51/71/21 104/72/1 103/73/1
f 46/57/17 51/71/21 102/74/21 45/75/23 106/76/12
f 52/77/17 53/78/18 107/79/18 59/80/18
f 59/80/18 58/81/17 52/77/17
f 53/78/18 108/82/9 110/83/9
f 60/84/19 111/85/9 110/83/9
f 54/86/19 112/87/20 114/88/20
f 61/89/15 115/90/20 114/88/20
f 55/91/15 116/92/3 118/93/3
f 62/94/16 119/95/3 118/93/3
f 56/96/16 57/97/21 63/98/21 120/99/1
f 63/98/21 121/100/1 120/99/1
f 57/97/21 52/77/17 58/81/17
f 58/81/17 63/98/21 57/97/21
f 64/101/17 65/102/18 122/103/18 71/104/18
f 71/104/18 70/105/17 64/101/17
f 65/102/18 123/106/9 125/107/9
f 72/108/19 126/109/9 125/107/9
f 66/110/19 127/111/20 129/112/20
f 73/113/24 130/114/20 129/112/20
f 67/26/15 131/27/3 133/22/3
f 74/24/14 134/30/3 133/22/3
f 68/28/16 69/115/21 75/116/21 135/29/1
f 75/116/21 136/117/1 135/29/1
f 69/115/21 64/101/17 70/105/17
f 70/105/17 75/116/21 69/115/21
f 129/112/20 124/118/19 66/110/19
f 129/112/20 130/114/20 124/118/19
f 130/114/20 72/119/19 124/118/19
f 129/112/20 128/25/15 73/113/24
f 129/112/20 127/111/20 128/25/15
f 127/111/20 67/26/15 128/25/15
f 125/107/9 122/103/18 65/102/18
f 125/107/9 126/109/9 122/103/18
f 126/109/9 71/104/18 122/103/18
f 125/107/9 124/120/19 72/108/19
f 125/107/9 123/106/9 124/120/19
f 123/106/9 66/121/19 124/120/19
f 120/99/1 117/122/16 56/96/16
f 120/99/1 121/100/1 117/122/16
f 121/100/1 62/94/16 117/122/16
f 118/93/3 113/123/15 55/91/15
f 118/93/3 119/95/3 113/123/15
f 119/95/3 61/89/15 113/123/15
f 118/93/3 117/122/16 62/94/16
f 118/93/3 116/92/3 117/122/16
f 116/92/3 56/96/16 117/122/16
f 114/88/20 109/124/19 54/86/19
f 114/88/20 115/90/20 109/124/19
f 115/90/20 60/125/19 109/124/19
f 114/88/20 113/123/15 61/89/15
f 114/88/20 112/87/20 113/123/15
f 112/87/20 55/91/15 113/123/15
f 110/83/9 107/79/18 53/78/18
f 110/83/9 111/85/9 107/79/18
f 111/85/9 59/80/18 107/79/18
f 110/83/9 109/126/19 60/84/19
f 110/83/9 108/82/9 109/126/19
f 108/82/9 54/127/19 109/126/19
f 106/76/12 88/58/17 46/57/17
f 106/76/12 105/128/12 88/58/17
f 105/128/12 40/59/22 88/58/17
f 103/73/1 98/129/16 44/130/25
f 103/73/1 104/72/1 98/129/16
f 104/72/1 50/69/16 98/129/16
f 103/73/1 102/74/21 51/71/21
f 103/73/1 101/131/1 102/74/21
f 101/131/1 45/75/23 102/74/21
f 99/68/3 94/132/15 43/66/15
f 99/68/3 100/70/3 94/132/15
f 100/70/3 49/64/15 94/132/15
f 99/68/3 98/129/16 50/69/16
f 99/68/3 97/67/3 98/129/16
f 97/67/3 44/130/25 98/129/16
f 95/63/20 90/133/19 42/61/19
f 95/63/20 96/65/20 90/133/19
f 96/65/20 48/134/26 90/133/19
f 95/63/20 94/132/15 49/64/15
f 95/63/20 93/62/20 94/132/15
f 93/62/20 43/66/15 94/132/15
f 91/135/9 86/136/18 41/137/27
f 91/135/9 92/138/9 86/136/18
f 92/138/9 47/56/18 86/136/18
f 91/135/9 90/139/19 48/140/26
f 91/135/9 89/141/9 90/139/19
f 89/141/9 42/142/19 90/139/19
f 87/60/7 86/136/18 47/56/18
f 87/60/7 85/143/7 86/136/18
f 85/143/7 41/137/27 86/136/18
f 83/54/1 80/144/16 32/51/16
f 83/54/1 84/55/1 80/144/16
f 84/55/1 38/49/16 80/144/16
f 81/48/3 77/145/15 31/46/15
f 81/48/3 82/50/3 77/145/15
f 82/50/3 37/44/15 77/145/15
f 81/48/3 80/144/16 38/49/16
f 81/48/3 23/47/3 80/144/16
f 23/47/3 32/51/16 80/144/16
f 78/43/20 25/146/19 30/41/19
f 78/43/20 79/45/20 25/146/19
f 79/45/20 36/39/19 25/146/19
f 78/43/20 77/145/15 37/44/15
f 78/43/20 24/42/20 77/145/15
f 24/42/20 31/46/15 77/145/15
f 27/38/9 26/147/18 29/36/18
f 27/38/9 76/40/9 26/147/18
f 76/40/9 35/148/18 26/147/18
f 27/38/9 25/149/19 36/39/19
f 27/38/9 22/37/9 25/149/19
f 22/37/9 30/150/19 25/149/19
